<mxfile host="65bd71144e">
    <diagram id="1rPOivrc0qdIIZzVxFxa" name="Lagrange">
        <mxGraphModel dx="934" dy="720" grid="1" gridSize="10" guides="1" tooltips="1" connect="1" arrows="1" fold="1" page="1" pageScale="1" pageWidth="850" pageHeight="1100" math="1" shadow="0">
            <root>
                <mxCell id="0"/>
                <mxCell id="1" parent="0"/>
                <mxCell id="fCaCkwcuU478UPee1ZoP-19" style="edgeStyle=none;html=1;exitX=0.5;exitY=1;exitDx=0;exitDy=0;entryX=0.5;entryY=0;entryDx=0;entryDy=0;" parent="1" source="3" target="6" edge="1">
                    <mxGeometry relative="1" as="geometry"/>
                </mxCell>
                <mxCell id="3" value="$$w_i=0, i=\overline{0,n}\\&lt;br&gt;w_{n+1}(x)=hoocner\_nhan(x_i),i=\overline{0,n}\\&lt;br&gt;k=0$$" style="whiteSpace=wrap;html=1;" parent="1" vertex="1">
                    <mxGeometry x="34.379999999999995" y="350" width="261.25" height="80" as="geometry"/>
                </mxCell>
                <mxCell id="fCaCkwcuU478UPee1ZoP-18" style="edgeStyle=none;html=1;exitX=0.5;exitY=1;exitDx=0;exitDy=0;entryX=0.5;entryY=0;entryDx=0;entryDy=0;" parent="1" source="5" target="3" edge="1">
                    <mxGeometry relative="1" as="geometry"/>
                </mxCell>
                <mxCell id="5" value="$$x_i,y_i,i=\overline{0,n}$$" style="shape=parallelogram;perimeter=parallelogramPerimeter;whiteSpace=wrap;html=1;fixedSize=1;" parent="1" vertex="1">
                    <mxGeometry x="100" y="250" width="130" height="60" as="geometry"/>
                </mxCell>
                <mxCell id="fCaCkwcuU478UPee1ZoP-21" style="edgeStyle=none;html=1;exitX=1;exitY=0.5;exitDx=0;exitDy=0;entryX=0;entryY=0.5;entryDx=0;entryDy=0;" parent="1" source="6" target="fCaCkwcuU478UPee1ZoP-41" edge="1">
                    <mxGeometry relative="1" as="geometry">
                        <mxPoint x="380" y="500" as="targetPoint"/>
                    </mxGeometry>
                </mxCell>
                <mxCell id="fCaCkwcuU478UPee1ZoP-25" value="no" style="edgeLabel;html=1;align=center;verticalAlign=middle;resizable=0;points=[];" parent="fCaCkwcuU478UPee1ZoP-21" vertex="1" connectable="0">
                    <mxGeometry x="-0.6795" y="1" relative="1" as="geometry">
                        <mxPoint as="offset"/>
                    </mxGeometry>
                </mxCell>
                <mxCell id="fCaCkwcuU478UPee1ZoP-23" style="edgeStyle=none;html=1;exitX=0.5;exitY=1;exitDx=0;exitDy=0;entryX=0.5;entryY=0;entryDx=0;entryDy=0;" parent="1" source="6" target="fCaCkwcuU478UPee1ZoP-22" edge="1">
                    <mxGeometry relative="1" as="geometry"/>
                </mxCell>
                <mxCell id="fCaCkwcuU478UPee1ZoP-24" value="yes" style="edgeLabel;html=1;align=center;verticalAlign=middle;resizable=0;points=[];" parent="fCaCkwcuU478UPee1ZoP-23" vertex="1" connectable="0">
                    <mxGeometry x="-0.3896" y="1" relative="1" as="geometry">
                        <mxPoint as="offset"/>
                    </mxGeometry>
                </mxCell>
                <mxCell id="6" value="$$k&amp;lt;n$$" style="rhombus;whiteSpace=wrap;html=1;" parent="1" vertex="1">
                    <mxGeometry x="125" y="460" width="80" height="80" as="geometry"/>
                </mxCell>
                <mxCell id="fCaCkwcuU478UPee1ZoP-15" style="edgeStyle=none;html=1;exitX=0.5;exitY=1;exitDx=0;exitDy=0;entryX=0.5;entryY=0;entryDx=0;entryDy=0;" parent="1" source="fCaCkwcuU478UPee1ZoP-14" target="5" edge="1">
                    <mxGeometry relative="1" as="geometry"/>
                </mxCell>
                <mxCell id="fCaCkwcuU478UPee1ZoP-14" value="begin" style="ellipse;whiteSpace=wrap;html=1;" parent="1" vertex="1">
                    <mxGeometry x="105" y="140" width="120" height="80" as="geometry"/>
                </mxCell>
                <mxCell id="fCaCkwcuU478UPee1ZoP-20" value="end" style="ellipse;whiteSpace=wrap;html=1;" parent="1" vertex="1">
                    <mxGeometry x="350" y="959" width="120" height="80" as="geometry"/>
                </mxCell>
                <mxCell id="fCaCkwcuU478UPee1ZoP-27" style="edgeStyle=none;html=1;exitX=0.5;exitY=1;exitDx=0;exitDy=0;" parent="1" source="fCaCkwcuU478UPee1ZoP-22" target="fCaCkwcuU478UPee1ZoP-26" edge="1">
                    <mxGeometry relative="1" as="geometry"/>
                </mxCell>
                <mxCell id="fCaCkwcuU478UPee1ZoP-22" value="$$d_i=D_i(k)\\&lt;br&gt;\frac{w_{n+1}(x)}{x-x_k}=hoocner\_chia(w_{n+1}(x),x_k)$$" style="rounded=0;whiteSpace=wrap;html=1;" parent="1" vertex="1">
                    <mxGeometry x="21.25" y="610" width="287.5" height="90" as="geometry"/>
                </mxCell>
                <mxCell id="fCaCkwcuU478UPee1ZoP-29" style="edgeStyle=none;html=1;exitX=0.5;exitY=1;exitDx=0;exitDy=0;entryX=0.5;entryY=0;entryDx=0;entryDy=0;" parent="1" source="fCaCkwcuU478UPee1ZoP-26" target="fCaCkwcuU478UPee1ZoP-28" edge="1">
                    <mxGeometry relative="1" as="geometry"/>
                </mxCell>
                <mxCell id="fCaCkwcuU478UPee1ZoP-26" value="$$w_{tmp}=\frac{y_k}{d_i}\times\frac{w_{n+1}(x)}{x-x_k}$$" style="rounded=0;whiteSpace=wrap;html=1;" parent="1" vertex="1">
                    <mxGeometry x="82.5" y="750" width="165" height="60" as="geometry"/>
                </mxCell>
                <mxCell id="fCaCkwcuU478UPee1ZoP-31" value="" style="edgeStyle=none;html=1;" parent="1" source="fCaCkwcuU478UPee1ZoP-28" target="fCaCkwcuU478UPee1ZoP-30" edge="1">
                    <mxGeometry relative="1" as="geometry"/>
                </mxCell>
                <mxCell id="fCaCkwcuU478UPee1ZoP-28" value="$$w_i=w_i+w_{tmp(i)},i=\overline{0,n}$$" style="rounded=0;whiteSpace=wrap;html=1;" parent="1" vertex="1">
                    <mxGeometry x="77.5" y="860" width="175" height="60" as="geometry"/>
                </mxCell>
                <mxCell id="fCaCkwcuU478UPee1ZoP-32" style="edgeStyle=none;html=1;exitX=0;exitY=0.5;exitDx=0;exitDy=0;entryX=0;entryY=0.5;entryDx=0;entryDy=0;" parent="1" source="fCaCkwcuU478UPee1ZoP-30" target="6" edge="1">
                    <mxGeometry relative="1" as="geometry">
                        <Array as="points">
                            <mxPoint x="10" y="1000"/>
                            <mxPoint x="10" y="960"/>
                            <mxPoint x="10" y="780"/>
                            <mxPoint x="10" y="500"/>
                        </Array>
                    </mxGeometry>
                </mxCell>
                <mxCell id="fCaCkwcuU478UPee1ZoP-30" value="$$k=k+1$$" style="whiteSpace=wrap;html=1;rounded=0;" parent="1" vertex="1">
                    <mxGeometry x="105" y="974" width="120" height="50" as="geometry"/>
                </mxCell>
                <mxCell id="fCaCkwcuU478UPee1ZoP-39" style="edgeStyle=none;html=1;exitX=0.5;exitY=1;exitDx=0;exitDy=0;entryX=0.5;entryY=0;entryDx=0;entryDy=0;" parent="1" source="fCaCkwcuU478UPee1ZoP-33" target="fCaCkwcuU478UPee1ZoP-37" edge="1">
                    <mxGeometry relative="1" as="geometry"/>
                </mxCell>
                <mxCell id="fCaCkwcuU478UPee1ZoP-33" value="begin" style="ellipse;whiteSpace=wrap;html=1;" parent="1" vertex="1">
                    <mxGeometry x="780" y="130" width="120" height="80" as="geometry"/>
                </mxCell>
                <mxCell id="44" style="edgeStyle=none;html=1;exitX=0.5;exitY=1;exitDx=0;exitDy=0;entryX=0.5;entryY=0;entryDx=0;entryDy=0;" parent="1" source="fCaCkwcuU478UPee1ZoP-34" target="fCaCkwcuU478UPee1ZoP-38" edge="1">
                    <mxGeometry relative="1" as="geometry"/>
                </mxCell>
                <mxCell id="fCaCkwcuU478UPee1ZoP-34" value="begin" style="ellipse;whiteSpace=wrap;html=1;" parent="1" vertex="1">
                    <mxGeometry x="1690" y="150" width="120" height="80" as="geometry"/>
                </mxCell>
                <mxCell id="fCaCkwcuU478UPee1ZoP-35" value="end" style="ellipse;whiteSpace=wrap;html=1;" parent="1" vertex="1">
                    <mxGeometry x="795" y="755" width="120" height="80" as="geometry"/>
                </mxCell>
                <mxCell id="fCaCkwcuU478UPee1ZoP-36" value="end" style="ellipse;whiteSpace=wrap;html=1;" parent="1" vertex="1">
                    <mxGeometry x="2005" y="680" width="120" height="80" as="geometry"/>
                </mxCell>
                <mxCell id="14" style="edgeStyle=none;html=1;exitX=0.5;exitY=1;exitDx=0;exitDy=0;entryX=0.5;entryY=0;entryDx=0;entryDy=0;" parent="1" source="fCaCkwcuU478UPee1ZoP-37" target="13" edge="1">
                    <mxGeometry relative="1" as="geometry"/>
                </mxCell>
                <mxCell id="fCaCkwcuU478UPee1ZoP-37" value="$$x_i,i=\overline{0,n}$$" style="shape=parallelogram;perimeter=parallelogramPerimeter;whiteSpace=wrap;html=1;fixedSize=1;" parent="1" vertex="1">
                    <mxGeometry x="780" y="240" width="120" height="60" as="geometry"/>
                </mxCell>
                <mxCell id="46" value="" style="edgeStyle=none;html=1;" parent="1" source="fCaCkwcuU478UPee1ZoP-38" target="45" edge="1">
                    <mxGeometry relative="1" as="geometry"/>
                </mxCell>
                <mxCell id="fCaCkwcuU478UPee1ZoP-38" value="$$w_i,i=\overline{0,n}\\&lt;br&gt;x_k$$" style="shape=parallelogram;perimeter=parallelogramPerimeter;whiteSpace=wrap;html=1;fixedSize=1;" parent="1" vertex="1">
                    <mxGeometry x="1685" y="270" width="130" height="60" as="geometry"/>
                </mxCell>
                <mxCell id="fCaCkwcuU478UPee1ZoP-42" style="edgeStyle=none;html=1;exitX=0.5;exitY=1;exitDx=0;exitDy=0;" parent="1" source="fCaCkwcuU478UPee1ZoP-41" target="fCaCkwcuU478UPee1ZoP-20" edge="1">
                    <mxGeometry relative="1" as="geometry"/>
                </mxCell>
                <mxCell id="fCaCkwcuU478UPee1ZoP-41" value="&lt;span&gt;$$w_i,i=\overline{0,n}$$&lt;/span&gt;" style="shape=parallelogram;perimeter=parallelogramPerimeter;whiteSpace=wrap;html=1;fixedSize=1;shadow=0;" parent="1" vertex="1">
                    <mxGeometry x="350" y="470" width="120" height="60" as="geometry"/>
                </mxCell>
                <mxCell id="16" value="" style="edgeStyle=none;html=1;" parent="1" source="13" target="15" edge="1">
                    <mxGeometry relative="1" as="geometry"/>
                </mxCell>
                <mxCell id="13" value="$$newArr=x_i,i=\overline{0,n}$$" style="rounded=0;whiteSpace=wrap;html=1;" parent="1" vertex="1">
                    <mxGeometry x="755" y="340" width="170" height="60" as="geometry"/>
                </mxCell>
                <mxCell id="18" value="" style="edgeStyle=none;html=1;" parent="1" source="15" target="17" edge="1">
                    <mxGeometry relative="1" as="geometry"/>
                </mxCell>
                <mxCell id="15" value="$$c=newArr.pop(0)\\&lt;br&gt;arrB=[1,-c,0]$$" style="whiteSpace=wrap;html=1;rounded=0;" parent="1" vertex="1">
                    <mxGeometry x="765" y="430" width="150" height="70" as="geometry"/>
                </mxCell>
                <mxCell id="20" value="" style="edgeStyle=none;html=1;" parent="1" source="17" target="19" edge="1">
                    <mxGeometry relative="1" as="geometry">
                        <Array as="points"/>
                    </mxGeometry>
                </mxCell>
                <mxCell id="23" value="yes" style="edgeLabel;html=1;align=center;verticalAlign=middle;resizable=0;points=[];" parent="20" vertex="1" connectable="0">
                    <mxGeometry x="-0.44" relative="1" as="geometry">
                        <mxPoint as="offset"/>
                    </mxGeometry>
                </mxCell>
                <mxCell id="34" value="" style="edgeStyle=none;html=1;" parent="1" source="17" target="33" edge="1">
                    <mxGeometry relative="1" as="geometry"/>
                </mxCell>
                <mxCell id="35" value="no" style="edgeLabel;html=1;align=center;verticalAlign=middle;resizable=0;points=[];" parent="34" vertex="1" connectable="0">
                    <mxGeometry x="-0.3744" relative="1" as="geometry">
                        <mxPoint as="offset"/>
                    </mxGeometry>
                </mxCell>
                <mxCell id="17" value="$$newArr\neq\emptyset$$" style="rhombus;whiteSpace=wrap;html=1;rounded=0;" parent="1" vertex="1">
                    <mxGeometry x="780" y="540" width="120" height="80" as="geometry"/>
                </mxCell>
                <mxCell id="22" value="" style="edgeStyle=none;html=1;" parent="1" source="19" target="21" edge="1">
                    <mxGeometry relative="1" as="geometry"/>
                </mxCell>
                <mxCell id="19" value="$$c=newArr.pop(0)\\&lt;br&gt;arrA=[arrB[0]]\\&lt;br&gt;k=1$$" style="whiteSpace=wrap;html=1;rounded=0;" parent="1" vertex="1">
                    <mxGeometry x="960" y="545" width="140" height="70" as="geometry"/>
                </mxCell>
                <mxCell id="25" value="" style="edgeStyle=none;html=1;" parent="1" source="21" target="24" edge="1">
                    <mxGeometry relative="1" as="geometry"/>
                </mxCell>
                <mxCell id="26" value="yes" style="edgeLabel;html=1;align=center;verticalAlign=middle;resizable=0;points=[];" parent="25" vertex="1" connectable="0">
                    <mxGeometry x="-0.4667" y="2" relative="1" as="geometry">
                        <mxPoint as="offset"/>
                    </mxGeometry>
                </mxCell>
                <mxCell id="29" value="" style="edgeStyle=none;html=1;" parent="1" source="21" target="28" edge="1">
                    <mxGeometry relative="1" as="geometry"/>
                </mxCell>
                <mxCell id="31" value="no" style="edgeLabel;html=1;align=center;verticalAlign=middle;resizable=0;points=[];" parent="29" vertex="1" connectable="0">
                    <mxGeometry x="-0.3667" relative="1" as="geometry">
                        <mxPoint as="offset"/>
                    </mxGeometry>
                </mxCell>
                <mxCell id="21" value="$$k&amp;lt;len(arrB)$$" style="rhombus;whiteSpace=wrap;html=1;rounded=0;" parent="1" vertex="1">
                    <mxGeometry x="1150" y="540" width="120" height="80" as="geometry"/>
                </mxCell>
                <mxCell id="30" style="edgeStyle=none;html=1;exitX=0.5;exitY=0;exitDx=0;exitDy=0;entryX=0.5;entryY=0;entryDx=0;entryDy=0;" parent="1" source="24" target="21" edge="1">
                    <mxGeometry relative="1" as="geometry">
                        <Array as="points">
                            <mxPoint x="1430" y="510"/>
                            <mxPoint x="1210" y="510"/>
                        </Array>
                    </mxGeometry>
                </mxCell>
                <mxCell id="24" value="$$a_k=arrB[k]-arrB[k-1]\times c\\&lt;br&gt;arrA.append(a_k)\\&lt;br&gt;k=k+1$$" style="whiteSpace=wrap;html=1;rounded=0;" parent="1" vertex="1">
                    <mxGeometry x="1320" y="535" width="220" height="90" as="geometry"/>
                </mxCell>
                <mxCell id="32" style="edgeStyle=none;html=1;exitX=0;exitY=0.5;exitDx=0;exitDy=0;entryX=0.5;entryY=1;entryDx=0;entryDy=0;" parent="1" source="28" target="17" edge="1">
                    <mxGeometry relative="1" as="geometry">
                        <Array as="points">
                            <mxPoint x="840" y="690"/>
                        </Array>
                    </mxGeometry>
                </mxCell>
                <mxCell id="28" value="$$arrB=arrA\\&lt;br&gt;arrB.append(0)$$" style="whiteSpace=wrap;html=1;rounded=0;" parent="1" vertex="1">
                    <mxGeometry x="1150" y="660" width="120" height="60" as="geometry"/>
                </mxCell>
                <mxCell id="37" style="edgeStyle=none;html=1;exitX=0.5;exitY=1;exitDx=0;exitDy=0;entryX=0.5;entryY=0;entryDx=0;entryDy=0;" parent="1" source="33" target="36" edge="1">
                    <mxGeometry relative="1" as="geometry"/>
                </mxCell>
                <mxCell id="33" value="$$arrB.pop(-1)$$" style="whiteSpace=wrap;html=1;rounded=0;" parent="1" vertex="1">
                    <mxGeometry x="595" y="551" width="120" height="60" as="geometry"/>
                </mxCell>
                <mxCell id="38" style="edgeStyle=none;html=1;exitX=1;exitY=0.5;exitDx=0;exitDy=0;" parent="1" source="36" target="fCaCkwcuU478UPee1ZoP-35" edge="1">
                    <mxGeometry relative="1" as="geometry"/>
                </mxCell>
                <mxCell id="36" value="$$return\;\;arrB$$" style="shape=parallelogram;perimeter=parallelogramPerimeter;whiteSpace=wrap;html=1;fixedSize=1;" parent="1" vertex="1">
                    <mxGeometry x="595" y="765" width="120" height="60" as="geometry"/>
                </mxCell>
                <mxCell id="39" value="hoocner_nhan" style="shape=note;whiteSpace=wrap;html=1;backgroundOutline=1;darkOpacity=0.05;" parent="1" vertex="1">
                    <mxGeometry x="690" y="10" width="160" height="80" as="geometry"/>
                </mxCell>
                <mxCell id="40" value="&lt;span&gt;Thuật toán Lagrange&lt;/span&gt;&lt;br&gt;&lt;span&gt;$$P_n(x)=\sum_{i=0}^n\left(\frac{y_i}{D_i}\times\frac{w_{n+1}(x)}{x-x_i}\right)$$&lt;/span&gt;" style="shape=note;whiteSpace=wrap;html=1;backgroundOutline=1;darkOpacity=0.05;" parent="1" vertex="1">
                    <mxGeometry x="10" y="20" width="210" height="100" as="geometry"/>
                </mxCell>
                <mxCell id="43" value="hoocner_chia" style="shape=note;whiteSpace=wrap;html=1;backgroundOutline=1;darkOpacity=0.05;" parent="1" vertex="1">
                    <mxGeometry x="1600" y="20" width="160" height="80" as="geometry"/>
                </mxCell>
                <mxCell id="51" value="" style="edgeStyle=none;html=1;" parent="1" source="45" target="50" edge="1">
                    <mxGeometry relative="1" as="geometry"/>
                </mxCell>
                <mxCell id="45" value="$$arrA=w_i,i=\overline{0,n}\\&lt;br&gt;c=x_k$$" style="whiteSpace=wrap;html=1;" parent="1" vertex="1">
                    <mxGeometry x="1680" y="360" width="140" height="60" as="geometry"/>
                </mxCell>
                <mxCell id="47" value="$$a_n=b_n\\&lt;br&gt;a_k=b_k-b_{k-1}\times c$$" style="shape=note;whiteSpace=wrap;html=1;backgroundOutline=1;darkOpacity=0.05;" parent="1" vertex="1">
                    <mxGeometry x="915" y="10" width="170" height="80" as="geometry"/>
                </mxCell>
                <mxCell id="48" value="$$b_n=a_n\\&lt;br&gt;b_k=a_k+b_{k+1}\times c$$" style="shape=note;whiteSpace=wrap;html=1;backgroundOutline=1;darkOpacity=0.05;" parent="1" vertex="1">
                    <mxGeometry x="1815" y="20" width="170" height="80" as="geometry"/>
                </mxCell>
                <mxCell id="49" value="$$\text{input:}\;x_i,y_i,i=\overline{0,n}\\&lt;br&gt;\text{output:}\;w_i,i=\overline{0,n}$$" style="shape=note;whiteSpace=wrap;html=1;backgroundOutline=1;darkOpacity=0.05;" parent="1" vertex="1">
                    <mxGeometry x="280" y="20" width="194" height="100" as="geometry"/>
                </mxCell>
                <mxCell id="53" value="" style="edgeStyle=none;html=1;" parent="1" source="50" target="52" edge="1">
                    <mxGeometry relative="1" as="geometry"/>
                </mxCell>
                <mxCell id="50" value="$$arrB=[arrA[0]]\\&lt;br&gt;k=1$$" style="whiteSpace=wrap;html=1;" parent="1" vertex="1">
                    <mxGeometry x="1690" y="460" width="120" height="60" as="geometry"/>
                </mxCell>
                <mxCell id="55" value="" style="edgeStyle=none;html=1;" parent="1" source="52" target="54" edge="1">
                    <mxGeometry relative="1" as="geometry"/>
                </mxCell>
                <mxCell id="56" value="yes" style="edgeLabel;html=1;align=center;verticalAlign=middle;resizable=0;points=[];" parent="55" vertex="1" connectable="0">
                    <mxGeometry x="-0.4111" y="1" relative="1" as="geometry">
                        <mxPoint as="offset"/>
                    </mxGeometry>
                </mxCell>
                <mxCell id="60" value="" style="edgeStyle=none;html=1;" parent="1" source="52" target="59" edge="1">
                    <mxGeometry relative="1" as="geometry"/>
                </mxCell>
                <mxCell id="52" value="$$k&amp;lt;len(arrA)$$" style="rhombus;whiteSpace=wrap;html=1;" parent="1" vertex="1">
                    <mxGeometry x="1690" y="560" width="120" height="80" as="geometry"/>
                </mxCell>
                <mxCell id="57" style="edgeStyle=none;html=1;exitX=0;exitY=0.5;exitDx=0;exitDy=0;entryX=0;entryY=0.5;entryDx=0;entryDy=0;" parent="1" source="54" target="52" edge="1">
                    <mxGeometry relative="1" as="geometry">
                        <Array as="points">
                            <mxPoint x="1620" y="720"/>
                            <mxPoint x="1620" y="600"/>
                        </Array>
                    </mxGeometry>
                </mxCell>
                <mxCell id="54" value="$$b_k=arrA[k]+arrB[k-1]\times c\\&lt;br&gt;arrB.append(b_k)$$" style="whiteSpace=wrap;html=1;" parent="1" vertex="1">
                    <mxGeometry x="1645" y="690" width="210" height="60" as="geometry"/>
                </mxCell>
                <mxCell id="62" style="edgeStyle=none;html=1;exitX=0.5;exitY=1;exitDx=0;exitDy=0;entryX=0.5;entryY=0;entryDx=0;entryDy=0;" parent="1" source="58" target="fCaCkwcuU478UPee1ZoP-36" edge="1">
                    <mxGeometry relative="1" as="geometry"/>
                </mxCell>
                <mxCell id="58" value="$$return\;\;arrB$$" style="shape=parallelogram;perimeter=parallelogramPerimeter;whiteSpace=wrap;html=1;fixedSize=1;" parent="1" vertex="1">
                    <mxGeometry x="2005" y="570" width="120" height="60" as="geometry"/>
                </mxCell>
                <mxCell id="61" style="edgeStyle=none;html=1;exitX=1;exitY=0.5;exitDx=0;exitDy=0;entryX=0;entryY=0.5;entryDx=0;entryDy=0;" parent="1" source="59" target="58" edge="1">
                    <mxGeometry relative="1" as="geometry"/>
                </mxCell>
                <mxCell id="59" value="$$arrB.pop(-1)$$" style="whiteSpace=wrap;html=1;" parent="1" vertex="1">
                    <mxGeometry x="1855" y="570" width="105" height="60" as="geometry"/>
                </mxCell>
            </root>
        </mxGraphModel>
    </diagram>
</mxfile>